<?xml version="1.0" encoding="utf-8"?>
<!-- Uploaded to: SVG Repo, www.svgrepo.com, Generator: SVG Repo Mixer Tools -->
<svg width="24px" height="24px" viewBox="0 0 1024 1024" class="icon"  version="1.1" xmlns="http://www.w3.org/2000/svg"><path d="M661.333333 874.666667H170.666667c-46.933333 0-85.333333-38.4-85.333334-85.333334V234.666667c0-46.933333 38.4-85.333333 85.333334-85.333334h682.666666c46.933333 0 85.333333 38.4 85.333334 85.333334v362.666666c0 153.6-123.733333 277.333333-277.333334 277.333334z" fill="#8CBCD6" /><path d="M746.666667 341.333333m-64 0a64 64 0 1 0 128 0 64 64 0 1 0-128 0Z" fill="#B3DDF5" /><path d="M426.666667 341.333333L192 682.666667h469.333333z" fill="#9AC9E3" /><path d="M661.333333 469.333333l-170.666666 213.333334h341.333333z" fill="#B3DDF5" /><path d="M1017.6 620.8l-59.733333-59.733333c-8.533333-8.533333-23.466667-8.533333-34.133334 0L896 588.8l93.866667 93.866667 27.733333-27.733334c8.533333-8.533333 8.533333-23.466667 0-34.133333z" fill="#E57373" /><path d="M585.962667 899.562667L848.426667 637.12l93.525333 93.525333L679.466667 993.066667z" fill="#FF9800" /><path d="M989.866667 683.477333l-46.762667 46.762667-93.504-93.525333 46.762667-46.741334z" fill="#B0BEC5" /><path d="M586.666667 900.266667L554.666667 1024l123.733333-32z" fill="#FFC107" /><path d="M569.6 960l-14.933333 64 64-14.933333z" fill="#37474F" /></svg>