<?xml version="1.0" encoding="utf-8"?>

<!DOCTYPE svg PUBLIC "-//W3C//DTD SVG 1.1//EN" "http://www.w3.org/Graphics/SVG/1.1/DTD/svg11.dtd">
<!-- Uploaded to: SVG Repo, www.svgrepo.com, Generator: SVG Repo Mixer Tools -->
<svg fill="#5c5c5c" version="1.1" id="Layer_1" xmlns="http://www.w3.org/2000/svg" xmlns:xlink="http://www.w3.org/1999/xlink" 
	 width="24px" height="24px" viewBox="0 0 70 70" enable-background="new 0 0 70 70" xml:space="preserve">
<g>
	<path d="M64.897,54.278l-15.54-15.543c1.645-3.291,2.575-6.997,2.575-10.917c0-13.509-10.99-24.5-24.5-24.5s-24.5,10.991-24.5,24.5
		s10.99,24.5,24.5,24.5c4.16,0,8.079-1.045,11.514-2.881l15.35,15.21c1.399,1.4,3.263,1.937,5.248,1.937c0.013,0,0.025,0,0.038,0
		c1.991,0,3.866-0.56,5.278-1.974c1.413-1.412,2.197-3.079,2.207-5.071C67.077,57.54,66.307,55.687,64.897,54.278z M47.915,52.749
		l4.914-4.914l1.587,1.586l-4.906,4.906L47.915,52.749z M6.933,27.818c0-11.323,9.178-20.5,20.5-20.5s20.5,9.177,20.5,20.5
		c0,11.324-9.178,20.5-20.5,20.5S6.933,39.142,6.933,27.818z M47.223,42.237l4.191,4.186l-4.921,4.92l-4.149-4.104
		C44.197,45.812,45.842,44.128,47.223,42.237z M62.032,61.783c-0.663,0.662-1.54,0.8-2.471,0.8c-0.006,0-0.012,0-0.018,0
		c-0.916,0-1.775-0.132-2.42-0.776l-6.192-6.099l4.899-4.888l6.238,6.237c0.648,0.648,1.003,1.444,0.998,2.368
		C63.063,60.355,62.695,61.119,62.032,61.783z"/>
	<path d="M25.274,11.712c-0.39,0-0.777,0.016-1.16,0.047c-0.551,0.045-0.96,0.528-0.915,1.079c0.044,0.522,0.48,0.918,0.996,0.918
		c0.027,0,0.056-0.001,0.083-0.003c0.328-0.027,0.661-0.041,0.996-0.041c0.553,0,1-0.448,1-1S25.827,11.712,25.274,11.712z"/>
	<path d="M19.463,12.978c-4.942,2.269-8.136,7.247-8.136,12.683c0,0.552,0.447,1,1,1s1-0.448,1-1c0-4.657,2.736-8.922,6.97-10.866
		c0.502-0.23,0.723-0.824,0.492-1.326C20.558,12.967,19.963,12.747,19.463,12.978z"/>
</g>
</svg>